<?xml version="1.0" encoding="utf-8"?>
<!-- Generator: Adobe Illustrator 18.1.1, SVG Export Plug-In . SVG Version: 6.00 Build 0)  -->
<svg version="1.1" id="Layer_1" xmlns="http://www.w3.org/2000/svg" xmlns:xlink="http://www.w3.org/1999/xlink" x="0px" y="0px"
	 viewBox="0 0 1000 1000" enable-background="new 0 0 1000 1000" xml:space="preserve">
<g>
	<g>
		<linearGradient id="SVGID_1_" gradientUnits="userSpaceOnUse" x1="482.8255" y1="771.6034" x2="513.8932" y2="302.4812">
			<stop  offset="0" style="stop-color:#4EC4CC"/>
			<stop  offset="0.3231" style="stop-color:#50C1CC"/>
			<stop  offset="0.5345" style="stop-color:#53BCCD"/>
			<stop  offset="0.7138" style="stop-color:#56B4CF"/>
			<stop  offset="0.8744" style="stop-color:#5BA9D1"/>
			<stop  offset="1" style="stop-color:#5E9DD5"/>
		</linearGradient>
		<path opacity="0.37" fill="url(#SVGID_1_)" d="M130,744.7H31.1c-26.5-27.5-33.5-71.3-17.7-106c15.1-33.1,47.4-55,67-85.6
			c41.8-65.4,21.6-162.7,78.4-215.6c28.4-26.4,69.2-34.1,107.9-37.1s78.6-3,114.4-18c44.1-18.5,77.3-58.3,122.7-73.3
			c51-16.8,112,4.2,141.8,48.9c18.6,28,25.7,63.1,47.7,88.4c35.7,41,98.5,44.2,143,75.4c30.5,21.4,51.1,56.4,55,93.5
			c4.7,44.7-12.2,95.6,14.6,131.7c13.1,17.6,34.3,27.5,48.4,44.4c14,16.8,18,32,13.6,53.4H130z"/>
		<linearGradient id="SVGID_2_" gradientUnits="userSpaceOnUse" x1="508.0896" y1="771.6034" x2="539.1573" y2="302.4812">
			<stop  offset="0" style="stop-color:#4EC4CC"/>
			<stop  offset="0.3231" style="stop-color:#50C1CC"/>
			<stop  offset="0.5345" style="stop-color:#53BCCD"/>
			<stop  offset="0.7138" style="stop-color:#56B4CF"/>
			<stop  offset="0.8744" style="stop-color:#5BA9D1"/>
			<stop  offset="1" style="stop-color:#5E9DD5"/>
		</linearGradient>
		<path opacity="0.37" fill="url(#SVGID_2_)" d="M155.2,744.7H56.4c-26.5-27.5-33.5-71.3-17.7-106c15.1-33.1,47.4-55,67-85.6
			c41.8-65.4,21.6-162.7,78.4-215.6c28.4-26.4,69.2-34.1,107.9-37.1s78.6-3,114.4-18c44.1-18.5,77.3-58.3,122.7-73.3
			c51-16.8,112,4.2,141.8,48.9c18.6,28,25.7,63.1,47.7,88.4c35.7,41,98.5,44.2,143,75.4c30.5,21.4,51.1,56.4,55,93.5
			c4.7,44.7-12.2,95.6,14.6,131.7c13.1,17.6,34.3,27.5,48.4,44.4c14,16.8,18,32,13.6,53.4H155.2z"/>
	</g>
	<g>
		<linearGradient id="SVGID_3_" gradientUnits="userSpaceOnUse" x1="157.0558" y1="604.6502" x2="374.291" y2="604.6502">
			<stop  offset="0" style="stop-color:#4EC4CC"/>
			<stop  offset="0.3231" style="stop-color:#50C1CC"/>
			<stop  offset="0.5345" style="stop-color:#53BCCD"/>
			<stop  offset="0.7138" style="stop-color:#56B4CF"/>
			<stop  offset="0.8744" style="stop-color:#5BA9D1"/>
			<stop  offset="1" style="stop-color:#5E9DD5"/>
		</linearGradient>
		<path fill="url(#SVGID_3_)" d="M374.3,690.5h-30.8v54.2h-74.7v-54.2H157.1v-55.6l116.5-170.3h69.9V634h30.8V690.5z M268.7,634
			v-32.6c0-6.1,0.2-14.4,0.7-24.8c0.4-10.4,0.8-15.9,1.1-16.4h-2.1c-4.3,9.8-9.3,19-14.8,27.6l-31,46.2H268.7z"/>
		<linearGradient id="SVGID_4_" gradientUnits="userSpaceOnUse" x1="247.249" y1="763.1306" x2="245.1779" y2="657.5004">
			<stop  offset="0" style="stop-color:#F8E5D8"/>
			<stop  offset="5.039573e-003" style="stop-color:#F8E6D9"/>
			<stop  offset="0.1259" style="stop-color:#FBF1EA"/>
			<stop  offset="0.2739" style="stop-color:#FDF9F6"/>
			<stop  offset="0.478" style="stop-color:#FFFEFD"/>
			<stop  offset="1" style="stop-color:#FFFFFF"/>
		</linearGradient>
		<path fill="url(#SVGID_4_)" d="M353.9,690.5H323v54.2h-74.7v-54.2H136.7v-55.6l116.5-170.3H323V634h30.8V690.5z M248.3,634v-32.6
			c0-6.1,0.2-14.4,0.7-24.8c0.4-10.4,0.8-15.9,1.1-16.4H248c-4.3,9.8-9.3,19-14.8,27.6l-31,46.2H248.3z"/>
	</g>
	<g>
		
			<linearGradient id="SVGID_5_" gradientUnits="userSpaceOnUse" x1="613.4446" y1="641.5126" x2="830.6866" y2="641.5126" gradientTransform="matrix(0.9818 -0.1899 0.1899 0.9818 -92.5134 132.6055)">
			<stop  offset="0" style="stop-color:#4EC4CC"/>
			<stop  offset="0.3231" style="stop-color:#50C1CC"/>
			<stop  offset="0.5345" style="stop-color:#53BCCD"/>
			<stop  offset="0.7138" style="stop-color:#56B4CF"/>
			<stop  offset="0.8744" style="stop-color:#5BA9D1"/>
			<stop  offset="1" style="stop-color:#5E9DD5"/>
		</linearGradient>
		<path fill="url(#SVGID_5_)" d="M861.8,692.3l-10.7-55.5l-20,3.9l-10.3,2l-32.1-166.3L720,489.7L638,679l10.5,54.6l109.7-21.2
			l6.2,32.3h76.1l-9-46.5l10.3-2L861.8,692.3z M727.4,660.8l-25.3,4.9l18-42.6l3.6-8.6c3.8-9.4,6.8-19.4,9.2-29.9l2.1-0.4
			c-0.2,0.5,0.5,6,2.1,16.3c1.5,10.3,2.9,18.5,4.1,24.5l6.2,32L727.4,660.8z"/>
		<linearGradient id="SVGID_6_" gradientUnits="userSpaceOnUse" x1="731.1335" y1="753.6427" x2="729.0623" y2="648.0125">
			<stop  offset="0" style="stop-color:#F8E5D8"/>
			<stop  offset="5.039573e-003" style="stop-color:#F8E6D9"/>
			<stop  offset="0.1259" style="stop-color:#FBF1EA"/>
			<stop  offset="0.2739" style="stop-color:#FDF9F6"/>
			<stop  offset="0.478" style="stop-color:#FFFEFD"/>
			<stop  offset="1" style="stop-color:#FFFFFF"/>
		</linearGradient>
		<path fill="url(#SVGID_6_)" d="M841.8,696.2l-10.7-55.5l-30.3,5.9l-32.2-166.3l-48.6,9.4l-20,3.9l-82,189.3l10.5,54.5l20-3.9
			l89.6-17.3l5.5,28.4h76.1l-8.2-42.6l20-3.9L841.8,696.2z M720.2,623.1c0.4,2.1,0.7,4,1.1,5.7l6.2,32l-45.3,8.8l21.7-51.2
			c3.8-9.4,6.8-19.4,9.2-29.9l2.1-0.4c-0.2,0.6,0.5,6,2.1,16.3C718.3,611.7,719.3,617.9,720.2,623.1z"/>
	</g>
	<g id="XMLID_2_">
		<g>
			<linearGradient id="SVGID_7_" gradientUnits="userSpaceOnUse" x1="295.3019" y1="471.2597" x2="356.7469" y2="455.3807">
				<stop  offset="0" style="stop-color:#4EC4CC"/>
				<stop  offset="0.3231" style="stop-color:#50C1CC"/>
				<stop  offset="0.5345" style="stop-color:#53BCCD"/>
				<stop  offset="0.7138" style="stop-color:#56B4CF"/>
				<stop  offset="0.8744" style="stop-color:#5BA9D1"/>
				<stop  offset="1" style="stop-color:#5E9DD5"/>
			</linearGradient>
			<path fill="url(#SVGID_7_)" d="M384.7,602.6l-45.6,0l-29-212.2c0,0-41.9-45.7-89.9-54.3l45.8-4.9l103.2,2.8L384.7,602.6z"/>
			<path fill="#151324" d="M204.7,486c0,0-25.9,37.9-14.4,70.5l48.2-70.5l-6.3-8.4L204.7,486z"/>
			<path fill="#151324" d="M339.1,602.6l-1.6,9.8c0,0-13.7,1.9-14.5,21.5h35.7l19.4-19l1.8-12.4H339.1z"/>
			<linearGradient id="SVGID_8_" gradientUnits="userSpaceOnUse" x1="173.3385" y1="412.8996" x2="310.1288" y2="412.8996">
				<stop  offset="0" style="stop-color:#4EC4CC"/>
				<stop  offset="0.3231" style="stop-color:#50C1CC"/>
				<stop  offset="0.5345" style="stop-color:#53BCCD"/>
				<stop  offset="0.7138" style="stop-color:#56B4CF"/>
				<stop  offset="0.8744" style="stop-color:#5BA9D1"/>
				<stop  offset="1" style="stop-color:#5E9DD5"/>
			</linearGradient>
			<path fill="url(#SVGID_8_)" d="M283.9,390.3l-57.2-2.1l9.3,87.5l-38.7,13.9L175,381.5c-6.5-20.1,7.1-41.2,28.2-43.5l17-1.8h0
				c48.1,8.6,89.9,54.3,89.9,54.3L283.9,390.3z"/>
		</g>
		<g>
			<linearGradient id="SVGID_9_" gradientUnits="userSpaceOnUse" x1="78.0991" y1="140.854" x2="178.668" y2="140.854">
				<stop  offset="0" style="stop-color:#51ADC6"/>
				<stop  offset="4.297650e-002" style="stop-color:#6DB5BC"/>
				<stop  offset="0.1116" style="stop-color:#8CC1AF"/>
				<stop  offset="0.1905" style="stop-color:#A3CBA2"/>
				<stop  offset="0.2826" style="stop-color:#B5D398"/>
				<stop  offset="0.3965" style="stop-color:#C1DA91"/>
				<stop  offset="0.5563" style="stop-color:#C8DE8C"/>
				<stop  offset="1" style="stop-color:#CAE08B"/>
			</linearGradient>
			<path fill="url(#SVGID_9_)" d="M178.7,146v2.5l-3.1,0.4c-0.8-1.7-1.6-3.1-2.5-3.8c-4.1-3.6-7-6.4-10-4.7
				c-2.2,1.3-2.1,7.4-1.9,10.3l-8.4,1.1l-74.7,9.5l0-0.1c4.8-1.1,8.6-9.8,8.6-20.4c0-10.4-3.7-19-8.4-20.4l100.4,11.3v2V146z"/>
			<linearGradient id="SVGID_10_" gradientUnits="userSpaceOnUse" x1="83.6911" y1="129.2285" x2="67.4172" y2="129.2285">
				<stop  offset="0" style="stop-color:#98D5CB"/>
				<stop  offset="0.4501" style="stop-color:#98D3CA"/>
				<stop  offset="0.6122" style="stop-color:#94CDCA"/>
				<stop  offset="0.7277" style="stop-color:#8DC4CA"/>
				<stop  offset="0.8212" style="stop-color:#84B7CA"/>
				<stop  offset="0.9012" style="stop-color:#78A7C9"/>
				<stop  offset="0.9708" style="stop-color:#6B95C7"/>
				<stop  offset="1" style="stop-color:#648CC8"/>
			</linearGradient>
			<path fill="url(#SVGID_10_)" d="M83.7,125.9c-0.2,0.3-0.4,0.6-0.6,1c-1.1,2.1-1.6,4.4-2.9,6.4c-1,1.4-2.4,2.5-4,3.1
				c-1.7,0.7-3.5,0.8-5.3,1c-1.2,0.2-2.4,0.4-3.5,0.9c0.6-10,4.5-17.7,9.3-18l1.6,0.2C80.4,121,82.3,123,83.7,125.9z"/>
			<linearGradient id="SVGID_11_" gradientUnits="userSpaceOnUse" x1="86.6688" y1="138.9669" x2="67.3307" y2="138.9669">
				<stop  offset="0" style="stop-color:#4EC4CC"/>
				<stop  offset="0.3231" style="stop-color:#50C1CC"/>
				<stop  offset="0.5345" style="stop-color:#53BCCD"/>
				<stop  offset="0.7138" style="stop-color:#56B4CF"/>
				<stop  offset="0.8744" style="stop-color:#5BA9D1"/>
				<stop  offset="1" style="stop-color:#5E9DD5"/>
			</linearGradient>
			<path fill="url(#SVGID_11_)" d="M86.7,139.1c0,0-0.1,0.1-0.1,0.1c-1.2,1.6-1.8,3.7-3,5.4c-1.3,2-3.5,3.4-5.8,4
				c-2.2,0.5-4.5,0.2-6.5,1.2c-1,0.5-1.8,1.3-2.4,2.3c-1-3.2-1.6-7.1-1.6-11.3c0-0.9,0-1.7,0.1-2.5c1.1-0.5,2.3-0.7,3.5-0.9
				c1.8-0.2,3.6-0.3,5.3-1c1.6-0.6,3-1.7,4-3.1c1.3-1.9,1.8-4.3,2.9-6.4c0.2-0.3,0.4-0.6,0.6-1C85.4,129.3,86.5,133.9,86.7,139.1z"
				/>
			<linearGradient id="SVGID_12_" gradientUnits="userSpaceOnUse" x1="86.7035" y1="150.1941" x2="68.9234" y2="150.1941">
				<stop  offset="0" style="stop-color:#98D5CB"/>
				<stop  offset="0.4501" style="stop-color:#98D3CA"/>
				<stop  offset="0.6122" style="stop-color:#94CDCA"/>
				<stop  offset="0.7277" style="stop-color:#8DC4CA"/>
				<stop  offset="0.8212" style="stop-color:#84B7CA"/>
				<stop  offset="0.9012" style="stop-color:#78A7C9"/>
				<stop  offset="0.9708" style="stop-color:#6B95C7"/>
				<stop  offset="1" style="stop-color:#648CC8"/>
			</linearGradient>
			<path fill="url(#SVGID_12_)" d="M86.7,140.8c0,10.6-3.8,19.3-8.6,20.4c-0.3,0.1-0.7,0.1-1.1,0.1c-3.4,0-6.4-3.7-8.1-9.2
				c0.6-1,1.4-1.7,2.4-2.3c2-1,4.3-0.7,6.5-1.2c2.3-0.5,4.5-2,5.8-4c1.1-1.7,1.7-3.8,3-5.4c0,0,0.1-0.1,0.1-0.1
				C86.7,139.6,86.7,140.2,86.7,140.8z"/>
			<path fill="#151324" d="M237.8,135.7H268c-3.2,1.3-5.8,2.7-7,3.8c-1,0.9-0.5,2.5,0.6,4.6h-23.8V135.7z"/>
			<path fill="#151324" d="M304.7,140.8v3.3h-16.4c-1.6-3.6-2.8-6.7-3.2-8.4h19.5V140.8z"/>
			<linearGradient id="SVGID_13_" gradientUnits="userSpaceOnUse" x1="178.668" y1="139.8758" x2="237.8078" y2="139.8758">
				<stop  offset="0" style="stop-color:#4EC4CC"/>
				<stop  offset="0.3231" style="stop-color:#50C1CC"/>
				<stop  offset="0.5345" style="stop-color:#53BCCD"/>
				<stop  offset="0.7138" style="stop-color:#56B4CF"/>
				<stop  offset="0.8744" style="stop-color:#5BA9D1"/>
				<stop  offset="1" style="stop-color:#5E9DD5"/>
			</linearGradient>
			<polygon fill="url(#SVGID_13_)" points="237.8,144.1 237.8,146 178.7,146 178.7,133.8 237.8,133.8 237.8,135.7 			"/>
			<linearGradient id="SVGID_14_" gradientUnits="userSpaceOnUse" x1="152.8013" y1="158.3755" x2="181.0052" y2="158.3755">
				<stop  offset="0" style="stop-color:#F6BE85"/>
				<stop  offset="0.3139" style="stop-color:#F6BC83"/>
				<stop  offset="0.5193" style="stop-color:#F6B77C"/>
				<stop  offset="0.6935" style="stop-color:#F6AE6F"/>
				<stop  offset="0.8495" style="stop-color:#F7A25E"/>
				<stop  offset="0.9935" style="stop-color:#F79346"/>
				<stop  offset="1" style="stop-color:#F79245"/>
			</linearGradient>
			<path fill="url(#SVGID_14_)" d="M181,166.9l-13,9.9c0,0-15.8-16.6-15.2-25l8.4-1.1c-0.2-2.9-0.4-9,1.9-10.3c3-1.7,5.8,1.1,10,4.7
				c0.8,0.7,1.7,2.1,2.5,3.8C178.6,155.5,181,166.9,181,166.9z"/>
			<path fill="#5C2D88" d="M93.4,120.5c-0.9-1.9-3.7-0.3-2.8,1.6c5.4,11.7,4.7,24.6-1.7,35.7c-1,1.8,1.8,3.4,2.8,1.6
				C98.7,147.3,99.2,133.2,93.4,120.5z"/>
		</g>
		<g>
			<linearGradient id="SVGID_15_" gradientUnits="userSpaceOnUse" x1="319.385" y1="179.9332" x2="318.4513" y2="213.8581">
				<stop  offset="0" style="stop-color:#756DB2"/>
				<stop  offset="0.474" style="stop-color:#746CB1"/>
				<stop  offset="0.6448" style="stop-color:#6F69AF"/>
				<stop  offset="0.7665" style="stop-color:#6762AC"/>
				<stop  offset="0.8649" style="stop-color:#5A59A7"/>
				<stop  offset="0.9481" style="stop-color:#4A4EA1"/>
				<stop  offset="1" style="stop-color:#3B469D"/>
			</linearGradient>
			<polygon fill="url(#SVGID_15_)" points="325.3,180 325.3,190 313.3,178.7 			"/>
			<linearGradient id="SVGID_16_" gradientUnits="userSpaceOnUse" x1="342.2486" y1="180.3796" x2="339.7587" y2="259.1228">
				<stop  offset="0" style="stop-color:#756DB2"/>
				<stop  offset="0.474" style="stop-color:#746CB1"/>
				<stop  offset="0.6448" style="stop-color:#6F69AF"/>
				<stop  offset="0.7665" style="stop-color:#6762AC"/>
				<stop  offset="0.8649" style="stop-color:#5A59A7"/>
				<stop  offset="0.9481" style="stop-color:#4A4EA1"/>
				<stop  offset="1" style="stop-color:#3B469D"/>
			</linearGradient>
			<path fill="url(#SVGID_16_)" d="M325.3,190l12.1,11.4l11.5,10.9c0,0,26.5-18.5,36.7-18.7c0.7,0,1.4,0,2.1,0.1
				c9.1,1.3,14.6,11.8,13,21.8c-1.7,10.8-1.4,22.8-11.8,24.7c-10.4,2-56.3,13.1-56.3,13.1l-50.3-68.2l5.9-4.1l13.2-9.2l2.7-1.9
				l5.8,5.5l3.4,3.2L325.3,190z"/>
			<linearGradient id="SVGID_17_" gradientUnits="userSpaceOnUse" x1="363.0078" y1="181.1338" x2="362.0741" y2="215.0587">
				<stop  offset="0" style="stop-color:#756DB2"/>
				<stop  offset="0.474" style="stop-color:#746CB1"/>
				<stop  offset="0.6448" style="stop-color:#6F69AF"/>
				<stop  offset="0.7665" style="stop-color:#6762AC"/>
				<stop  offset="0.8649" style="stop-color:#5A59A7"/>
				<stop  offset="0.9481" style="stop-color:#4A4EA1"/>
				<stop  offset="1" style="stop-color:#3B469D"/>
			</linearGradient>
			<path fill="url(#SVGID_17_)" d="M357.7,182.1l30,11.7c-0.7-0.1-1.4-0.2-2.1-0.1c-10.3,0.2-36.7,18.7-36.7,18.7l-11.5-10.9
				L357.7,182.1z"/>
			<linearGradient id="SVGID_18_" gradientUnits="userSpaceOnUse" x1="162.3249" y1="252.6479" x2="388.9122" y2="252.6479">
				<stop  offset="0" style="stop-color:#756DB2"/>
				<stop  offset="0.474" style="stop-color:#746CB1"/>
				<stop  offset="0.6448" style="stop-color:#6F69AF"/>
				<stop  offset="0.7665" style="stop-color:#6762AC"/>
				<stop  offset="0.8649" style="stop-color:#5A59A7"/>
				<stop  offset="0.9481" style="stop-color:#4A4EA1"/>
				<stop  offset="1" style="stop-color:#3B469D"/>
			</linearGradient>
			<path fill="url(#SVGID_18_)" d="M388.9,240.3l-17.4,47.5l-2.3,46.2c0,0-2,0.4-5.6,0.9c-16.6,2.4-66.4,8.1-97.6-3.7l12.1-57.4
				l-5.6-45.3l-67.7,7.5l-42.5-54.9l5.7-4.3l13-9.9l40.1,39.2l62.8-27.5c2.3,1.6,4.3,2.5,4.3,2.5l-5.9,4.1l50.3,68.2
				C332.6,253.4,378.5,242.3,388.9,240.3z"/>
			<linearGradient id="SVGID_19_" gradientUnits="userSpaceOnUse" x1="260.4285" y1="156.9888" x2="301.4317" y2="156.9888">
				<stop  offset="0" style="stop-color:#F6BE85"/>
				<stop  offset="0.3139" style="stop-color:#F6BC83"/>
				<stop  offset="0.5193" style="stop-color:#F6B77C"/>
				<stop  offset="0.6935" style="stop-color:#F6AE6F"/>
				<stop  offset="0.8495" style="stop-color:#F7A25E"/>
				<stop  offset="0.9935" style="stop-color:#F79346"/>
				<stop  offset="1" style="stop-color:#F79245"/>
			</linearGradient>
			<path fill="url(#SVGID_19_)" d="M301.4,171.9l-13.2,9.2c0,0-2-0.8-4.3-2.5c-3-2.1-6.5-5.6-6.9-10.6c-0.6-6.6-11.8-17.5-15.5-23.9
				c-1.2-2.1-1.6-3.7-0.6-4.6c1.2-1.1,3.9-2.6,7-3.8c7-2.8,16.3-4.7,17.1-0.3c0,0.1,0.1,0.2,0.1,0.3c0.4,1.7,1.6,4.8,3.2,8.4
				C293.1,155.3,301.4,171.9,301.4,171.9z"/>
			<linearGradient id="SVGID_20_" gradientUnits="userSpaceOnUse" x1="282.3185" y1="236.5407" x2="388.9122" y2="236.5407">
				<stop  offset="0" style="stop-color:#402C80"/>
				<stop  offset="0.3036" style="stop-color:#432C80"/>
				<stop  offset="0.5022" style="stop-color:#4A2C81"/>
				<stop  offset="0.6708" style="stop-color:#562B83"/>
				<stop  offset="0.8224" style="stop-color:#672B85"/>
				<stop  offset="0.9616" style="stop-color:#7B2B88"/>
				<stop  offset="1" style="stop-color:#822B89"/>
			</linearGradient>
			<path opacity="0.38" fill="url(#SVGID_20_)" d="M371.5,287.8c-76.9-16.3-89.2-102.6-89.2-102.6l50.3,68.2l56.3-13.1L371.5,287.8z
				"/>
		</g>
		<g>
			<linearGradient id="SVGID_21_" gradientUnits="userSpaceOnUse" x1="307.5603" y1="165.7322" x2="361.4384" y2="165.7322">
				<stop  offset="0" style="stop-color:#F6BE85"/>
				<stop  offset="0.3139" style="stop-color:#F6BC83"/>
				<stop  offset="0.5193" style="stop-color:#F6B77C"/>
				<stop  offset="0.6935" style="stop-color:#F6AE6F"/>
				<stop  offset="0.8495" style="stop-color:#F7A25E"/>
				<stop  offset="0.9935" style="stop-color:#F79346"/>
				<stop  offset="1" style="stop-color:#F79245"/>
			</linearGradient>
			<path fill="url(#SVGID_21_)" d="M357.3,140.2c1.6-0.5,3.3-0.1,3.9,2.5c1.5,5.9-5.1,13.1-5.1,13.1l1.6,26.4l-20.3,19.4l8-22.8
				l-20.1,1.3l-12-1.3l-3.4-3.2c0,0-2.3-21.9-2.3-34.7c0-3,0.1-5.4,0.4-7l0.1-0.6c14.1,2.4,33.6-3.1,33.6-3.1s2.7,26.6,6.5,27.1
				c3.7,0.5,4.9-14.5,4.9-14.5S355.2,140.7,357.3,140.2z"/>
			<path fill="#151324" d="M357.4,120.8l-0.2,19.4c-2.1,0.6-4.2,2.5-4.2,2.5s-1.2,14.9-4.9,14.5c-3.7-0.5-6.5-27.1-6.5-27.1
				s-19.5,5.5-33.6,3.1v0c-4.4-0.7-8.3-2.3-10.8-5c-10.8-11.3-7-17.7,8.4-14.2C321.1,117.4,353,98.9,357.4,120.8z"/>
			<polygon fill="#F79245" points="345.3,178.7 337.4,201.4 325.3,190 325.3,180 			"/>
			<path fill="#151324" d="M306.8,136.6c3.1-1.6,6.3-1.7,9.6-0.6c2,0.7,0.5,3.6-1.5,2.9c-2-0.7-4.4-0.6-6.3,0.4
				C306.7,140.3,304.9,137.6,306.8,136.6z"/>
			
				<ellipse transform="matrix(0.9986 -5.221754e-002 5.221754e-002 0.9986 -7.0825 17.7745)" fill="#151324" cx="336.6" cy="144.4" rx="2.4" ry="3.5"/>
			<path fill="#151324" d="M340.7,135.9c-3.2-1.2-6.5-1.1-9.6,0.4c-1.9,0.9-0.1,3.7,1.8,2.8c2-0.9,4.3-1,6.3-0.3
				C341.2,139.5,342.7,136.6,340.7,135.9z"/>
			<path fill="#F79245" d="M318,155.3c1-5,3.6-10,5.3-14.8c0.4-1,1.8-0.2,1.5,0.7c-1.1,3-2.2,6-3.3,9c-0.4,1-1.3,2.8-1.4,3.9
				c-0.4,3.7,1.4,3.5,3.3,4.4c1,0.4,0.2,1.9-0.7,1.5C320.3,158.8,317.2,158.7,318,155.3z"/>
			<path fill="#151324" d="M316.1,144.8c-1.5-1.2-3.3-2-5.2-2.3c-1.2-0.2-1.7,1.7-0.5,1.9c1,0.1,1.9,0.4,2.8,0.8c-1,0.3-2,0.7-3.1,1
				c-1.2,0.4-0.7,2.2,0.5,1.9c1.7-0.5,3.4-1.1,5.1-1.6C316.3,146.2,316.7,145.3,316.1,144.8z"/>
			<ellipse fill="#FFFFFF" cx="324.1" cy="169.9" rx="4.3" ry="6.2"/>
		</g>
	</g>
	<g>
		<linearGradient id="SVGID_22_" gradientUnits="userSpaceOnUse" x1="518.5115" y1="895.3105" x2="520.5827" y2="752.3991">
			<stop  offset="0" style="stop-color:#98D5CB"/>
			<stop  offset="0.4501" style="stop-color:#98D3CA"/>
			<stop  offset="0.6122" style="stop-color:#94CDCA"/>
			<stop  offset="0.7277" style="stop-color:#8DC4CA"/>
			<stop  offset="0.8212" style="stop-color:#84B7CA"/>
			<stop  offset="0.9012" style="stop-color:#78A7C9"/>
			<stop  offset="0.9708" style="stop-color:#6B95C7"/>
			<stop  offset="1" style="stop-color:#648CC8"/>
		</linearGradient>
		<path opacity="0.5" fill="url(#SVGID_22_)" d="M912.6,744.7H142.1c0,0-41.5,27.5,20.2,32.2s157.8,9.1,155.4,30
			c-2.4,21-58,16.8-58,53.9c0,37,256.7,28.5,256.7,28.5s145,1.9,165.7-22.6c20.7-24.5-58.5-46.9-44.1-56.6
			c14.4-9.7,118.6,19.3,134.1-4.1c15.5-23.5-3.1-38.3,25.5-41.4C826.3,761.4,907.8,772.6,912.6,744.7z"/>
		<linearGradient id="SVGID_23_" gradientUnits="userSpaceOnUse" x1="854.3743" y1="886.1388" x2="854.3743" y2="760.3147">
			<stop  offset="0" style="stop-color:#98D5CB"/>
			<stop  offset="0.4501" style="stop-color:#98D3CA"/>
			<stop  offset="0.6122" style="stop-color:#94CDCA"/>
			<stop  offset="0.7277" style="stop-color:#8DC4CA"/>
			<stop  offset="0.8212" style="stop-color:#84B7CA"/>
			<stop  offset="0.9012" style="stop-color:#78A7C9"/>
			<stop  offset="0.9708" style="stop-color:#6B95C7"/>
			<stop  offset="1" style="stop-color:#648CC8"/>
		</linearGradient>
		<ellipse fill="url(#SVGID_23_)" cx="854.4" cy="793.5" rx="58.3" ry="16.6"/>
		<linearGradient id="SVGID_24_" gradientUnits="userSpaceOnUse" x1="234.1424" y1="886.1388" x2="234.1424" y2="760.3147">
			<stop  offset="0" style="stop-color:#98D5CB"/>
			<stop  offset="0.4501" style="stop-color:#98D3CA"/>
			<stop  offset="0.6122" style="stop-color:#94CDCA"/>
			<stop  offset="0.7277" style="stop-color:#8DC4CA"/>
			<stop  offset="0.8212" style="stop-color:#84B7CA"/>
			<stop  offset="0.9012" style="stop-color:#78A7C9"/>
			<stop  offset="0.9708" style="stop-color:#6B95C7"/>
			<stop  offset="1" style="stop-color:#648CC8"/>
		</linearGradient>
		<ellipse fill="url(#SVGID_24_)" cx="234.1" cy="807.8" rx="50.9" ry="12.6"/>
		<ellipse fill="#EBF7FB" cx="526" cy="856.9" rx="57.8" ry="11.1"/>
	</g>
	<g>
		<g>
			
				<linearGradient id="SVGID_25_" gradientUnits="userSpaceOnUse" x1="437.88" y1="654.8173" x2="640.1734" y2="654.8173" gradientTransform="matrix(0.9797 0.2002 -0.2002 0.9797 116.5429 -95.1525)">
				<stop  offset="0" style="stop-color:#4EC4CC"/>
				<stop  offset="0.3231" style="stop-color:#50C1CC"/>
				<stop  offset="0.5345" style="stop-color:#53BCCD"/>
				<stop  offset="0.7138" style="stop-color:#56B4CF"/>
				<stop  offset="0.8744" style="stop-color:#5BA9D1"/>
				<stop  offset="1" style="stop-color:#5E9DD5"/>
			</linearGradient>
			<path fill="url(#SVGID_25_)" d="M602.5,596.5c-11.9-27.1-34.1-44-66.8-50.7c-3.6-0.7-7-1.3-10.4-1.7
				c-28.8-3.6-52.6,3.2-71.3,20.6c-20.9,19.4-36.4,53.6-46.4,102.4c-6.1,29.9-7.8,55.8-5.1,77.6h71.4c-0.9-12.7,1.6-33.6,7.5-62.5
				c6.4-31.3,12.7-52.4,19-63.4c3.6-6.4,7.8-10.6,12.4-12.6c3.3-1.5,6.9-1.8,10.7-1c9.1,1.9,14.4,9.3,15.8,22.3
				c1.4,13-1,34.7-7.2,65.1c-4.7,22.8-9.4,40.2-14,52.2h78.2c3.6-11.2,6.8-23.6,9.6-37.1c1.8-8.9,3.3-17.5,4.3-25.7
				C614.7,647,612.1,618.5,602.5,596.5z"/>
			<linearGradient id="SVGID_26_" gradientUnits="userSpaceOnUse" x1="488.3107" y1="758.4039" x2="486.2396" y2="652.7737">
				<stop  offset="0" style="stop-color:#F8E5D8"/>
				<stop  offset="5.039573e-003" style="stop-color:#F8E6D9"/>
				<stop  offset="0.1259" style="stop-color:#FBF1EA"/>
				<stop  offset="0.2739" style="stop-color:#FDF9F6"/>
				<stop  offset="0.478" style="stop-color:#FFFEFD"/>
				<stop  offset="1" style="stop-color:#FFFFFF"/>
			</linearGradient>
			<path fill="url(#SVGID_26_)" d="M582.5,592.5c-10.7-24.4-29.7-40.5-57.2-48.3c-3.1-0.9-6.3-1.7-9.6-2.3
				c-33.5-6.9-60.8-0.6-81.7,18.9c-20.9,19.5-36.4,53.6-46.3,102.4c-2,9.9-3.6,19.4-4.6,28.5c-2.3,19.9-2.3,37.6,0.1,53.2h71.3
				c-0.1-0.5-0.2-0.9-0.2-1.4c-1.5-12.4,0.9-34.2,7.3-65.2c6.4-31.3,12.7-52.4,19-63.4c6.3-11,14-15.5,23.1-13.7
				c3.7,0.8,6.8,2.5,9.3,5.1c3.6,3.8,5.7,9.5,6.5,17.2c1.4,13-1,34.7-7.2,65.1c-5.2,25.5-10.5,44.2-15.7,56.2H575
				c4.1-12.3,7.8-26,10.9-41.1C595.5,656.6,594.3,619.6,582.5,592.5z"/>
		</g>
		<g>
			<polygon fill="#2A2A2A" points="637,409.5 636.5,409.8 586.3,448.9 555,473.3 528.9,545.4 521.7,542.8 548.5,468.6 632.3,403.4 
							"/>
		</g>
		<linearGradient id="SVGID_27_" gradientUnits="userSpaceOnUse" x1="586.3096" y1="498.5988" x2="668.3037" y2="498.5988">
			<stop  offset="0" style="stop-color:#756DB2"/>
			<stop  offset="0.474" style="stop-color:#746CB1"/>
			<stop  offset="0.6448" style="stop-color:#6F69AF"/>
			<stop  offset="0.7665" style="stop-color:#6762AC"/>
			<stop  offset="0.8649" style="stop-color:#5A59A7"/>
			<stop  offset="0.9481" style="stop-color:#4A4EA1"/>
			<stop  offset="1" style="stop-color:#3B469D"/>
		</linearGradient>
		<path fill="url(#SVGID_27_)" d="M661,571.4c-5.7,6.8-13.5,11.4-21.1,15.9l-0.5-0.9c3-3.9,6.2-8.4,5.3-13.2
			c-0.6-3.3-3.1-5.9-5.5-8.1c-4.2-3.7-8.9-6.8-12.9-10.7c-4-3.9-7.4-8.8-8.1-14.3c-0.8-7.3,3.1-14.2,4.6-21.4c0.6-2.9,0.8-6-0.3-8.7
			c-2.6-6.1-10.3-7.5-16.5-10c-5.5-2.2-10.7-6.4-12.2-12.1c-2.2-8.3,3.7-16.9,2.9-25.4c-0.6-6-4.8-11.3-10.3-13.6l50.2-39.1
			c8.5,7.4,15.8,17.1,15.9,28.3c0,7.1-2.8,13.8-4.9,20.5c-0.8,2.7-1.5,5.6-1,8.4c0.8,4.3,4.2,7.5,7.3,10.5
			c6.5,6.2,13,13.7,12.9,22.7c-0.1,10.1-8.7,19-7.2,29c1,6.4,5.9,11.4,7.8,17.5C670,555.2,666.7,564.6,661,571.4z"/>
	</g>
</g>
</svg>
