<?xml version="1.0" encoding="utf-8"?>
<!-- Generator: Adobe Illustrator 18.1.1, SVG Export Plug-In . SVG Version: 6.00 Build 0)  -->
<svg version="1.1" id="Layer_1" xmlns="http://www.w3.org/2000/svg" xmlns:xlink="http://www.w3.org/1999/xlink" x="0px" y="0px"
	 viewBox="0 0 100 100" enable-background="new 0 0 100 100" xml:space="preserve">
<g>
	<path fill="#CCCCCC" d="M63.8,50l20.6-20.6c2.5-2.5,2.5-6.6,0-9.2l-4.6-4.6c-2.5-2.5-6.6-2.5-9.2,0L50,36.2L29.4,15.6
		c-2.5-2.5-6.6-2.5-9.2,0l-4.6,4.6c-2.5,2.5-2.5,6.6,0,9.2L36.2,50L15.6,70.6c-2.5,2.5-2.5,6.6,0,9.2l4.6,4.6c2.5,2.5,6.6,2.5,9.2,0
		L50,63.8l20.6,20.6c2.5,2.5,6.6,2.5,9.2,0l4.6-4.6c2.5-2.5,2.5-6.6,0-9.2L63.8,50z"/>
</g>
</svg>
