<?xml version="1.0" encoding="utf-8"?>
<!-- Generator: Adobe Illustrator 18.1.1, SVG Export Plug-In . SVG Version: 6.00 Build 0)  -->
<svg version="1.1" id="Layer_1" xmlns="http://www.w3.org/2000/svg" xmlns:xlink="http://www.w3.org/1999/xlink" x="0px" y="0px"
	 viewBox="0 0 100 100" enable-background="new 0 0 100 100" xml:space="preserve">
<path fill="#CCCCCC" d="M48.1,1l-46,53.7v40.9c0,2.2,1.8,4,4,4l28-0.1c2.2,0,4-1.8,4-4V71.7c0-2.2,1.8-4,4-4h16c2.2,0,4,1.8,4,4
	v23.9c0,2.2,1.8,4,4,4c0,0,0,0,0,0l28,0.1c2.2,0,4-1.8,4-4V54.7L51.9,1C50.8,0.1,49.2,0.1,48.1,1z"/>
</svg>
