<?xml version="1.0" encoding="utf-8"?>
<!-- Generator: Adobe Illustrator 18.1.1, SVG Export Plug-In . SVG Version: 6.00 Build 0)  -->
<svg version="1.1" id="Layer_1" xmlns="http://www.w3.org/2000/svg" xmlns:xlink="http://www.w3.org/1999/xlink" x="0px" y="0px"
	 viewBox="0 0 100 100" enable-background="new 0 0 100 100" xml:space="preserve">
<linearGradient id="SVGID_1_" gradientUnits="userSpaceOnUse" x1="194.3875" y1="78" x2="-25.4189" y2="78" gradientTransform="matrix(0.5 0 0 -0.5 0.5 89)">
	<stop  offset="0.1165" style="stop-color:#328ACA"/>
	<stop  offset="0.8536" style="stop-color:#328ACA"/>
</linearGradient>
<path fill="url(#SVGID_1_)" d="M70.4,20.6c-7.5,0-14.3,2.9-19.6,7.5c4.7,4.5,7.7,10.6,8.8,17.3c1.6-4.3,5.9-7.1,10.6-7.1
	c6.3,0,11.6,5.1,11.6,11.6c0,6.3-5.1,11.6-11.6,11.6c-4.9,0-9-3.1-10.6-7.1c-0.6-1.4-0.8-2.9-0.8-4.3l0,0c0-8.2-3.5-15.5-8.8-20.8
	c-0.2-0.2-0.6-0.6-0.8-0.8c-5.1-4.7-12-7.5-19.6-7.5c-16.1,0-29.2,13-29.2,29.2s13,29.2,29.2,29.2c7.5,0,14.3-2.9,19.6-7.5
	c-4.7-4.5-7.7-10.6-8.8-17.3c-1.6,4.3-5.9,7.1-10.6,7.1c-6.3,0-11.6-5.1-11.6-11.6c0-6.3,5.1-11.6,11.6-11.6c4.9,0,9,3.1,10.6,7.1
	c0.6,1.4,0.8,2.9,0.8,4.3l0,0c0,8.2,3.5,15.5,8.8,20.8c0.2,0.2,0.6,0.6,0.8,0.8c5.1,4.7,12,7.5,19.6,7.5c16.1,0,29.2-13,29.2-29.2
	C99.5,33.7,86.5,20.6,70.4,20.6z"/>
</svg>
