<?xml version="1.0" encoding="utf-8"?>
<!-- Generator: Adobe Illustrator 18.1.1, SVG Export Plug-In . SVG Version: 6.00 Build 0)  -->
<svg version="1.1" id="Layer_1" xmlns="http://www.w3.org/2000/svg" xmlns:xlink="http://www.w3.org/1999/xlink" x="0px" y="0px"
	 viewBox="0 0 100 100" enable-background="new 0 0 100 100" xml:space="preserve">
<path fill="#E7E7E7" d="M3.9,23.9h92.2c2,0,3.5-1.6,3.5-3.5v-8.9c0-2-1.6-3.5-3.5-3.5H3.9c-2,0-3.5,1.6-3.5,3.5v8.9
	C0.4,22.3,2,23.9,3.9,23.9z M3.9,58h92.2c2,0,3.5-1.6,3.5-3.5v-8.9c0-2-1.6-3.5-3.5-3.5H3.9c-2,0-3.5,1.6-3.5,3.5v8.9
	C0.4,56.4,2,58,3.9,58z M3.9,92h92.2c2,0,3.5-1.6,3.5-3.5v-8.9c0-2-1.6-3.5-3.5-3.5H3.9c-2,0-3.5,1.6-3.5,3.5v8.9
	C0.4,90.4,2,92,3.9,92z"/>
</svg>
