<?xml version="1.0" encoding="utf-8"?>
<!-- Generator: Adobe Illustrator 18.1.1, SVG Export Plug-In . SVG Version: 6.00 Build 0)  -->
<svg version="1.1" id="Layer_1" xmlns="http://www.w3.org/2000/svg" xmlns:xlink="http://www.w3.org/1999/xlink" x="0px" y="0px"
	 viewBox="0 0 200 50" enable-background="new 0 0 200 50" xml:space="preserve">
<g>
	<path fill="none" d="M51.4,19.6c-1.4,0-2.6,0.5-3.6,1.5c-1,1-1.5,2.1-1.5,3.5c0,1.4,0.5,2.6,1.5,3.5c1,1,2.2,1.5,3.5,1.5
		c1.4,0,2.6-0.5,3.5-1.5s1.5-2.2,1.5-3.5c0-1.4-0.5-2.5-1.4-3.5C53.9,20.1,52.7,19.6,51.4,19.6z"/>
	<path fill="#E8E8E8" d="M27.7,11.7c-1.4,0-2.6,0.3-3.5,0.8c-0.9,0.5-1.8,1.4-2.7,2.7c-1.4-2.3-3.3-3.5-5.8-3.5
		c-2.1,0-3.8,0.7-5.2,2.1c-1.3,1.4-2,3.2-2,5.4v17.7h7.3V20.9c0-1.3,0.4-2,1.1-2c0.4,0,0.6,0.1,0.8,0.4c0.1,0.3,0.2,0.8,0.2,1.6
		v15.9h7.3V20.8c0-1.2,0.4-1.8,1.1-1.8c0.4,0,0.6,0.1,0.8,0.4c0.1,0.3,0.2,0.8,0.2,1.6v15.9h7.3v-17c0-2.6-0.6-4.6-1.8-6
		C31.6,12.4,29.9,11.7,27.7,11.7z"/>
	<polygon fill="#E8E8E8" points="75.5,20 73.2,12.4 64.8,12.4 75.4,38.3 86.1,12.4 78,12.4 	"/>
	<rect x="88.6" y="12.4" fill="#E8E8E8" width="7.3" height="24.5"/>
	<path fill="#E8E8E8" d="M103.2,14.3c-1.3,1.3-2,3.1-2,5.5v9.6c0,2.4,0.7,4.3,2.1,5.6c1.4,1.3,3.5,1.9,6.2,1.9h5.7v-7h-4.9
		c-0.8,0-1.4-0.1-1.7-0.2c-0.3-0.2-0.4-0.5-0.4-1c0-0.5,0.1-0.8,0.4-1s0.7-0.3,1.4-0.3h4.8v-5.5h-4c-0.8,0-1.3-0.1-1.6-0.3
		c-0.3-0.2-0.4-0.5-0.4-1c0-0.8,0.6-1.2,1.9-1.2h4.6v-7h-6.3C106.5,12.4,104.6,13,103.2,14.3z"/>
	<path fill="#E8E8E8" d="M123,14.2c-1.6,1.7-2.5,3.7-2.5,6c0,1.9,0.5,3.8,1.6,5.7c0.7,1.2,1,2,1,2.4c0,0.6-0.2,1-0.6,1.4
		c-0.4,0.4-1,0.5-1.6,0.5c-0.5,0-1.2-0.2-1.8-0.7v7.1c1.1,0.5,2.3,0.8,3.5,0.8c2.4,0,4.5-0.8,6.2-2.5c1.7-1.7,2.5-3.7,2.5-6
		c0-1.6-0.5-3.3-1.5-5.1l-0.6-1c-0.4-0.8-0.6-1.4-0.6-1.9c0-0.6,0.2-1.1,0.6-1.5c0.4-0.4,0.9-0.6,1.4-0.6c0.3,0,0.7,0.1,1.2,0.3v-7
		c-1-0.3-2-0.5-3-0.5C126.6,11.7,124.6,12.6,123,14.2z"/>
	<path fill="#E8E8E8" d="M51.5,11.7c-3.7,0-6.8,1.2-9.3,3.7c-2.5,2.5-3.8,5.5-3.8,9.1c0,3.6,1.3,6.6,3.8,9.1
		c2.5,2.5,5.5,3.8,9.1,3.8c3.6,0,6.6-1.3,9.1-3.8c2.5-2.5,3.8-5.5,3.8-9.1c0-3.5-1.2-6.5-3.7-9.1C57.9,13,55,11.7,51.5,11.7z
		 M54.8,28.1c-1,1-2.2,1.5-3.5,1.5c-1.4,0-2.6-0.5-3.5-1.5c-1-1-1.5-2.2-1.5-3.5c0-1.4,0.5-2.6,1.5-3.5c1-1,2.2-1.5,3.6-1.5
		c1.3,0,2.5,0.5,3.5,1.5c1,1,1.4,2.2,1.4,3.5C56.3,26,55.8,27.2,54.8,28.1z"/>
	<linearGradient id="SVGID_1_" gradientUnits="userSpaceOnUse" x1="190.4924" y1="25" x2="136.5881" y2="25">
		<stop  offset="0.1165" style="stop-color:#328ACA"/>
		<stop  offset="0.8536" style="stop-color:#D1E9D1"/>
	</linearGradient>
	<path fill="url(#SVGID_1_)" d="M177.1,10.7c-3.7,0-7,1.4-9.6,3.7c2.3,2.2,3.8,5.2,4.3,8.5c0.8-2.1,2.9-3.5,5.2-3.5
		c3.1,0,5.7,2.5,5.7,5.7c0,3.1-2.5,5.7-5.7,5.7c-2.4,0-4.4-1.5-5.2-3.5c-0.3-0.7-0.4-1.4-0.4-2.1h0c0-4-1.7-7.6-4.3-10.2
		c-0.1-0.1-0.3-0.3-0.4-0.4c-2.5-2.3-5.9-3.7-9.6-3.7c-7.9,0-14.3,6.4-14.3,14.3c0,7.9,6.4,14.3,14.3,14.3c3.7,0,7-1.4,9.6-3.7
		c-2.3-2.2-3.8-5.2-4.3-8.5c-0.8,2.1-2.9,3.5-5.2,3.5c-3.1,0-5.7-2.5-5.7-5.7c0-3.1,2.5-5.7,5.7-5.7c2.4,0,4.4,1.5,5.2,3.5
		c0.3,0.7,0.4,1.4,0.4,2.1h0c0,4,1.7,7.6,4.3,10.2c0.1,0.1,0.3,0.3,0.4,0.4c2.5,2.3,5.9,3.7,9.6,3.7c7.9,0,14.3-6.4,14.3-14.3
		C191.4,17.1,185,10.7,177.1,10.7z"/>
</g>
</svg>
