<?xml version="1.0" encoding="utf-8"?>
<!-- Generator: Adobe Illustrator 18.1.1, SVG Export Plug-In . SVG Version: 6.00 Build 0)  -->
<svg version="1.1" id="Layer_1" xmlns="http://www.w3.org/2000/svg" xmlns:xlink="http://www.w3.org/1999/xlink" x="0px" y="0px"
	 viewBox="0 0 100 100" enable-background="new 0 0 100 100" xml:space="preserve">
<g>
	<path fill="#CCCCCC" d="M66.7,16.7H33.3C14.9,16.7,0,31.6,0,50s14.9,33.3,33.3,33.3h33.3C85.1,83.3,100,68.4,100,50
		S85.1,16.7,66.7,16.7z M11.1,50c0-12.3,9.9-22.2,22.2-22.2c12.3,0,22.2,9.9,22.2,22.2c0,12.3-9.9,22.2-22.2,22.2
		C21.1,72.2,11.1,62.3,11.1,50z M66.7,72.2h-8.5c11.3-12.6,11.3-31.8,0-44.4h8.5c12.3,0,22.2,9.9,22.2,22.2
		C88.9,62.3,78.9,72.2,66.7,72.2z"/>
</g>
</svg>
