<?xml version="1.0" encoding="utf-8"?>
<!-- Generator: Adobe Illustrator 18.1.1, SVG Export Plug-In . SVG Version: 6.00 Build 0)  -->
<svg version="1.1" id="Layer_1" xmlns="http://www.w3.org/2000/svg" xmlns:xlink="http://www.w3.org/1999/xlink" x="0px" y="0px"
	 viewBox="0 0 100 100" enable-background="new 0 0 100 100" xml:space="preserve">
<g>
	<path fill="#E7E7E7" d="M98.6,86.5L79.2,67c-0.9-0.9-2.1-1.4-3.3-1.4h-3.2c5.4-6.9,8.6-15.6,8.6-25C81.3,18.2,63.1,0,40.6,0
		S0,18.2,0,40.6s18.2,40.6,40.6,40.6c9.4,0,18.1-3.2,25-8.6v3.2c0,1.3,0.5,2.4,1.4,3.3l19.5,19.5c1.8,1.8,4.8,1.8,6.6,0l5.5-5.5
		C100.5,91.3,100.5,88.3,98.6,86.5z M40.6,65.6c-13.8,0-25-11.2-25-25c0-13.8,11.2-25,25-25c13.8,0,25,11.2,25,25
		C65.6,54.4,54.5,65.6,40.6,65.6z"/>
</g>
</svg>
