<?xml version="1.0" encoding="utf-8"?>
<!-- Generator: Adobe Illustrator 18.1.1, SVG Export Plug-In . SVG Version: 6.00 Build 0)  -->
<svg version="1.1" id="Layer_1" xmlns="http://www.w3.org/2000/svg" xmlns:xlink="http://www.w3.org/1999/xlink" x="0px" y="0px"
	 viewBox="0 0 1000 1000" enable-background="new 0 0 1000 1000" xml:space="preserve">
<path fill="#3399FF" d="M994,475c-94-184-281-308-494-308S100,291,6,475c-8,16-8,35,0,51c94,183,281,307,494,307s400-124,494-308
	C1002,509,1002,491,994,475z M500,750c-138,0-250-112-250-250s112-250,250-250s250,112,250,250S638,750,500,750L500,750z M500,333
	c-15,0-30,2-44,7c27,37,19,89-18,116c-29,22-69,22-98,0c-24,89,28,180,117,204s180-28,204-117s-28-180-117-204
	C530,335,515,333,500,333z"/>
</svg>
